# xmcd CD database file
#
# Track frame offsets:
#	150
#	19742
#	38897
#	52077
#	62995
#	79797
#	90822
#	103042
#	119585
#	136400
#	159490
#
# Disc length: 2297 seconds
#
# Revision: 0
# Processed by: cddbd v1.4PL0 Copyright (c) Steve Scherf et al.
# Submitted via: CDex 1.40Release
#
DISCID=8e08f70b
DTITLE=Townes Van Zandt - The Late Great Townes Van Zandt
DYEAR=1972
DGENRE=Country
TTITLE0=No Lonesome Tune
TTITLE1=Sad Cinderella
TTITLE2=German Mustard (A. Clapalong) 
TTITLE3=Don't Let the Sunshine Fool Ya'
TTITLE4=Honky Tonkin' 
TTITLE5=Snow Don't Fall
TTITLE6=Fraulein 
TTITLE7=Pancho and Lefty 
TTITLE8=If I Needed You 
TTITLE9=Silver Ships of Andilar 
TTITLE10=Heavenly Houseboat Blues
EXTD=YEAR: 1972 ID3G: 2
EXTT0=
EXTT1=
EXTT2=
EXTT3=
EXTT4=
EXTT5=
EXTT6=
EXTT7=
EXTT8=
EXTT9=
EXTT10=
PLAYORDER=
